<svg width="41" height="41" viewBox="0 0 41 41" fill="none" xmlns="http://www.w3.org/2000/svg">
<g clip-path="url(#clip0_4874_7322)">
<path fill-rule="evenodd" clip-rule="evenodd" d="M11.9381 0.62852C11.7577 0.692426 11.4706 0.884301 11.3 1.05485C10.8322 1.52266 10.7427 1.88118 10.7427 3.28735V4.48438H9.58149C8.19227 4.48438 7.76173 4.55625 7.00587 4.91446C5.92204 5.42805 5.02743 6.58415 4.80642 7.75672C4.76282 7.98821 4.72712 8.70016 4.72712 9.33875V10.5H3.53009C2.12485 10.5 1.76524 10.5896 1.29884 11.0561C0.938603 11.4163 0.741337 11.9269 0.746181 12.4866C0.752978 13.2698 1.16642 13.9406 1.85352 14.2829C2.23673 14.4739 2.32204 14.4844 3.49243 14.4844H4.72712V16.4685V18.4527L3.45759 18.4843C2.07852 18.5186 1.76907 18.5941 1.34102 19.0002C0.809228 19.505 0.594072 20.4787 0.860322 21.1759C1.04227 21.6523 1.47657 22.1262 1.91462 22.3261C2.20946 22.4607 2.46462 22.4915 3.49665 22.5171L4.72712 22.5477V24.5266V26.5056L3.37298 26.5302C2.02063 26.5547 2.01829 26.555 1.63673 26.7911C1.4004 26.9374 1.16454 27.1734 1.01821 27.4099C0.806103 27.7529 0.781806 27.8572 0.781806 28.4234C0.781806 29.1586 0.919696 29.5093 1.3872 29.9629C1.84517 30.4073 2.22142 30.5 3.56915 30.5H4.72712V31.6613C4.72712 32.2999 4.76282 33.0118 4.80642 33.2433C5.02743 34.4159 5.92204 35.572 7.00587 36.0856C7.76118 36.4435 8.19235 36.5156 9.57626 36.5156H10.7322L10.757 37.7852C10.7779 38.8566 10.8057 39.103 10.9351 39.3638C11.6275 40.7602 13.6511 40.8995 14.4517 39.606C14.6877 39.2245 14.6881 39.2221 14.7126 37.8698L14.7372 36.5156H16.7243H18.7115V37.5952C18.7115 38.8918 18.8149 39.3135 19.2551 39.8137C19.6932 40.3114 20.2295 40.5299 20.896 40.482C21.7111 40.4234 22.2961 40.0384 22.59 39.3672C22.6963 39.1245 22.7339 38.7714 22.7584 37.7852L22.7901 36.5156H24.7742H26.7584V37.7503C26.7584 38.9206 26.7688 39.006 26.9598 39.3891C27.3306 40.1333 28.019 40.5387 28.8199 40.4845C29.3974 40.4456 29.8187 40.2543 30.2056 39.8556C30.6501 39.3976 30.7427 39.0213 30.7427 37.6736V36.5156H31.904C33.2932 36.5156 33.7238 36.4438 34.4796 36.0856C35.5634 35.572 36.4581 34.4159 36.6791 33.2433C36.7227 33.0118 36.7584 32.2999 36.7584 31.6613V30.5H37.9554C39.3568 30.5 39.7207 30.4099 40.1819 29.9488C40.5549 29.5757 40.8213 28.8889 40.8197 28.3045C40.8189 28.045 40.7931 27.9228 40.7526 27.9868C40.7054 28.0612 40.6741 28.0276 40.6423 27.8688C40.5677 27.4959 40.0827 26.9417 39.6365 26.7194C39.2478 26.5256 39.167 26.5156 37.9931 26.5156H36.7584V24.5315V22.5473L38.0279 22.5157C39.4267 22.4809 39.7202 22.4066 40.1675 21.9736C40.3024 21.8431 40.473 21.5901 40.5466 21.4112C40.6203 21.2323 40.7122 21.0249 40.7508 20.9503C40.8302 20.7966 40.8482 19.8998 40.7703 19.9776C40.7426 20.0054 40.6414 19.8619 40.5456 19.6586C40.4497 19.4554 40.2527 19.1766 40.1077 19.0391C39.6398 18.5952 39.352 18.5198 37.9888 18.4844L36.7584 18.4523V16.4684V14.4844H38.0321C39.2476 14.4844 39.3245 14.4751 39.714 14.281C40.1884 14.0446 40.4566 13.7252 40.669 13.1442C40.8181 12.7363 40.8873 11.7587 40.7519 11.9723C40.7029 12.0495 40.6714 12.0221 40.6328 11.8683C40.5578 11.5696 40.2327 11.1035 39.9573 10.8998C39.511 10.5699 39.1548 10.5 37.9204 10.5H36.7584V9.33875C36.7584 8.70016 36.7227 7.98821 36.6791 7.75672C36.4581 6.58415 35.5634 5.42805 34.4796 4.91446C33.7243 4.55649 33.2931 4.48438 31.9092 4.48438H30.7533L30.7284 3.21485C30.7076 2.14344 30.6798 1.89704 30.5504 1.63618C29.8113 0.145863 27.6973 0.130942 26.9599 1.61079C26.7688 1.99399 26.7584 2.0793 26.7584 3.24969V4.48438H24.7662H22.774V3.40485C22.774 2.10821 22.6706 1.68649 22.2304 1.18633C21.7923 0.688598 21.256 0.47016 20.5895 0.518051C19.7744 0.576567 19.1894 0.961567 18.8955 1.63282C18.7892 1.87555 18.7516 2.2286 18.727 3.21485L18.6954 4.48438H16.7113H14.7271V3.24969C14.7271 2.07938 14.7167 1.99399 14.5257 1.61094C14.0581 0.672582 12.9749 0.261332 11.9381 0.62852ZM8.78962 20.5V32.4531H20.7427H32.6959V20.5V8.54688H20.7427H8.78962V20.5ZM0.767743 12.4531C0.767743 12.7324 0.781962 12.8466 0.799228 12.707C0.816572 12.5674 0.816572 12.3388 0.799228 12.1992C0.781962 12.0596 0.767743 12.1738 0.767743 12.4531ZM12.732 12.5504C12.7115 12.6043 12.7038 16.2168 12.7148 20.5781L12.7349 28.5078H20.7427H28.7506V20.5V12.4922L20.7599 12.4723C14.4088 12.4565 12.7617 12.4725 12.732 12.5504ZM0.767743 20.5C0.767743 20.7793 0.781962 20.8936 0.799228 20.7539C0.816572 20.6142 0.816572 20.3857 0.799228 20.2461C0.781962 20.1065 0.767743 20.2207 0.767743 20.5ZM0.767743 28.4688C0.767743 28.7481 0.781962 28.8623 0.799228 28.7227C0.816572 28.583 0.816572 28.3545 0.799228 28.2148C0.781962 28.0752 0.767743 28.1895 0.767743 28.4688Z" fill="#479DDE"/>
</g>
<defs>
<clipPath id="clip0_4874_7322">
<rect width="40" height="40" fill="white" transform="translate(0.742188 0.5)"/>
</clipPath>
</defs>
</svg>
