<svg width="20" height="20" viewBox="0 0 20 20" fill="none" xmlns="http://www.w3.org/2000/svg">
    <path
        d="M19.25 12.584V18.584C19.25 18.8824 19.1315 19.1685 18.9205 19.3795C18.7095 19.5905 18.4234 19.709 18.125 19.709H1.625C1.32663 19.709 1.04048 19.5905 0.829505 19.3795C0.618526 19.1685 0.5 18.8824 0.5 18.584V12.584C0.5 12.2856 0.618526 11.9995 0.829505 11.7885C1.04048 11.5775 1.32663 11.459 1.625 11.459C1.92337 11.459 2.20952 11.5775 2.4205 11.7885C2.63147 11.9995 2.75 12.2856 2.75 12.584V17.459H17V12.584C17 12.2856 17.1185 11.9995 17.3295 11.7885C17.5405 11.5775 17.8266 11.459 18.125 11.459C18.4234 11.459 18.7095 11.5775 18.9205 11.7885C19.1315 11.9995 19.25 12.2856 19.25 12.584ZM9.07906 13.3799C9.18358 13.4848 9.30777 13.568 9.44452 13.6248C9.58126 13.6816 9.72787 13.7108 9.87594 13.7108C10.024 13.7108 10.1706 13.6816 10.3074 13.6248C10.4441 13.568 10.5683 13.4848 10.6728 13.3799L14.4228 9.62992C14.6342 9.41858 14.7529 9.13193 14.7529 8.83305C14.7529 8.53416 14.6342 8.24752 14.4228 8.03617C14.2115 7.82483 13.9248 7.7061 13.6259 7.7061C13.3271 7.7061 13.0404 7.82483 12.8291 8.03617L11 9.86523V2.08398C11 1.78562 10.8815 1.49947 10.6705 1.28849C10.4595 1.07751 10.1734 0.958984 9.875 0.958984C9.57663 0.958984 9.29048 1.07751 9.0795 1.28849C8.86853 1.49947 8.75 1.78562 8.75 2.08398V9.86523L6.92094 8.03805C6.81629 7.9334 6.69206 7.85039 6.55533 7.79375C6.4186 7.73712 6.27206 7.70797 6.12406 7.70797C5.82518 7.70797 5.53853 7.8267 5.32719 8.03805C5.22254 8.14269 5.13953 8.26693 5.0829 8.40366C5.02626 8.54038 4.99711 8.68693 4.99711 8.83492C4.99711 9.13381 5.11584 9.42045 5.32719 9.6318L9.07906 13.3799Z"
        fill="white" />
</svg>